# xmcd
#
# Track frame offsets: 
#        150
#        17616
#        32768
#        53476
#        68475
#        88654
#        103441
#        114635
#        138915
#        162184
#
# Disc length: 2412 seconds
#
# Revision: 1
# Processed by: cddbd v1.5.2PL0 Copyright (c) Steve Scherf et al.
# Submitted via: ExactAudioCopy v1.3
#
DISCID=7b096a0a
DTITLE=Rodney Crowell - Super Hits 
DYEAR=1995
DGENRE=Country
TTITLE0=Lovin' All Night
TTITLE1=It's Such A Small World
TTITLE2=Life Is Messy
TTITLE3=I Couldn't Leave You If I Tried
TTITLE4=After All This Time
TTITLE5=She's Crazy For Leaving
TTITLE6=Above And Beyond
TTITLE7=Last Waltz ,
TTITLE8=Alone But Not Alone
TTITLE9=Things I Wish I'd Said
EXTD=
EXTT0=
EXTT1=
EXTT2=
EXTT3=
EXTT4=
EXTT5=
EXTT6=
EXTT7=
EXTT8=
EXTT9=
PLAYORDER=
